<?xml version="1.0" encoding="utf-8"?>
<!-- Generator: Adobe Illustrator 16.0.0, SVG Export Plug-In . SVG Version: 6.00 Build 0)  -->
<!DOCTYPE svg PUBLIC "-//W3C//DTD SVG 1.1//EN" "http://www.w3.org/Graphics/SVG/1.1/DTD/svg11.dtd">
<svg version="1.1" id="Layer_1" xmlns="http://www.w3.org/2000/svg" xmlns:xlink="http://www.w3.org/1999/xlink" x="0px" y="0px"
	 width="1234.373px" height="542.18px" viewBox="0 0 1234.373 542.18" enable-background="new 0 0 1234.373 542.18"
	 xml:space="preserve">
<path fill="#929497" d="M892.734,355.057V166.738H783.863v28.363c6.781,1.118,12.426,2.255,16.974,4.531
	c9.097,4.546,15.92,11.372,19.331,21.542c4.506,12.489,3.41,24.994,3.41,37.42v96.463l-2.273,9.098
	c-20.468,18.113-52.182,37.443-80.568,30.617c-29.481-6.82-30.619-38.576-30.619-62.373V166.738h-116.81
	C566.061,55.593,469.636,1.118,370.957,0h-19.288c-77.136,4.528-136.1,41.951-171.287,96.425
	c-24.953,40.793-37.421,89.58-32.933,142.921c6.862,83.916,78.293,184.912,178.107,191.732
	c12.508,13.604,24.975,27.166,38.578,38.576l6.822,5.645c48.771,39.676,100.954,66.881,165.581,66.881l66.942-83.936l-11.35-18.152
	c-26.07,15.922-57.846,26.072-88.486,21.605c-21.502-1.139-64.627-20.469-82.78-32.934c51.047-12.465,100.953-40.812,133.847-82.803
	c34.01-43.123,41.987-93.012,40.83-147.447c30.66,0,42.01,11.352,43.128,26.073v119.105c0,57.906,31.775,95.307,94.149,90.801
	c34.071-2.32,64.647-19.332,90.76-40.854v40.854l109.967-20.469v-28.348c-5.603,0-11.289-1.133-15.837-1.133
	C902.968,383.405,892.734,377.717,892.734,355.057 M394.774,404.928c-7.939,1.176-15.919,1.176-23.817,1.176
	c-77.095-4.506-119.104-85.072-134.982-155.406c-19.288-86.191,7.898-220.061,121.338-222.331c4.569-1.118,9.117,0,13.645,0
	c69.198,5.644,112.281,70.352,130.435,133.845C526.346,251.831,507.055,390.227,394.774,404.928 M1062.925,161.094l-11.372,1.118
	c-68.06,6.821-114.596,70.313-115.693,136.159c-2.314,72.525,43.086,131.57,115.693,136.121h11.372
	c51.044-1.139,94.13-29.564,116.829-72.609l-11.372-20.467c-22.698,18.152-55.592,37.439-90.717,36.301
	c-9.138,0-18.153-2.191-26.112-6.82c-29.48-13.564-52.141-46.535-53.319-78.213h182.778v-2.271l-0.162-11.371
	C1178.577,217.761,1136.668,159.937,1062.925,161.094 M999.412,262.007c2.234-29.481,19.289-66.906,52.141-69.176h5.645
	c35.208,1.113,45.4,38.577,46.538,69.176H999.412z M65.825,107.733c27.188,0,49.889-21.522,49.889-48.728
	c0-26.112-22.7-47.653-49.889-47.653c-28.363,0-51.063,21.542-51.063,47.653C14.762,86.211,37.462,107.733,65.825,107.733
	 M102.13,365.292V167.915l-11.411-6.821L0,192.831v20.404c17.036,6.821,32.934,20.428,32.934,40.833v113.416
	c0,10.234-1.137,18.193-7.939,23.881c-6.822,6.822-17.015,7.959-24.994,7.959v27.205h140.667v-27.205
	c-12.466,0-21.583-1.137-27.187-4.551C105.48,390.227,102.13,381.129,102.13,365.292 M1192.506,84.75
	c-23.147,0-41.828,18.541-41.828,41.706c0,22.983,18.681,41.784,41.828,41.784c23.105,0,41.867-18.8,41.867-41.784
	C1234.373,103.29,1215.611,84.75,1192.506,84.75 M1192.506,160.261c-18.642,0-33.544-15.044-33.544-33.806
	c0-18.6,14.902-33.728,33.544-33.728c18.597,0,33.744,15.128,33.744,33.728C1226.25,145.216,1211.103,160.261,1192.506,160.261
	 M1213.216,115.976c0-8.729-6.377-13.176-19.776-13.176h-18.111v46.153h11.288v-18.845h5.604l8.812,18.845h12.426l-10.356-20.713
	C1209.479,126.7,1213.216,122.13,1213.216,115.976 M1192.221,123.371h-5.604v-13.504h4.955c6.74,0,10.15,2.03,10.15,6.865
	C1201.722,121.296,1198.638,123.371,1192.221,123.371"/>
</svg>
