<?xml version="1.0" encoding="UTF-8" standalone="no"?>
<!-- Created with Inkscape (http://www.inkscape.org/) -->
<svg
   xmlns:svg="http://www.w3.org/2000/svg"
   xmlns="http://www.w3.org/2000/svg"
   version="1.0"
   width="600"
   height="97"
   id="svg2525">
  <defs
     id="defs2527" />
  <g
     transform="translate(-71.259743,-413.13689)"
     id="layer1">
    <g
       id="g2420">
      <path
         d="M 605.26892,506.65713 L 603.44857,506.65713 L 603.44857,499.54951 L 600.85924,499.54951 L 600.85924,498.02893 L 607.86694,498.02893 L 607.86694,499.54951 L 605.26892,499.54951 L 605.26892,506.65713 z"
         id="path47"
         style="fill:#000000;fill-opacity:1;fill-rule:nonzero;stroke:none" />
      <path
         d="M 617.94403,506.65713 L 616.27139,506.65713 L 616.27139,499.43655 L 616.24967,499.43655 L 614.63785,506.65713 L 612.87398,506.65713 L 611.30126,499.43655 L 611.27085,499.43655 L 611.27085,506.65713 L 609.59387,506.65713 L 609.59387,498.02893 L 612.20492,498.02893 L 613.76895,504.81506 L 613.79067,504.81506 L 615.32863,498.02893 L 617.94403,498.02893 L 617.94403,506.65713 z"
         id="path51"
         style="fill:#000000;fill-opacity:1;fill-rule:nonzero;stroke:none" />
      <g
         transform="matrix(4.3445154,0,0,-4.3445154,408.31768,500.14471)"
         id="g61">
        <path
           d="M 0,0 C 0,-0.187 -0.154,-0.333 -0.337,-0.333 L -6.782,-0.333 C -6.971,-0.333 -7.123,-0.187 -7.123,0 L -7.123,4.666 C -7.123,4.852 -6.971,5.006 -6.782,5.004 L -0.337,5.006 C -0.154,5.004 0,4.852 0,4.666 L 0,0 z M -0.278,6.406 L -6.844,6.406 C -7.793,6.406 -8.567,5.622 -8.567,4.677 L -8.567,-0.01 C -8.567,-0.955 -7.793,-1.733 -6.844,-1.733 L -0.278,-1.733 C 0.668,-1.733 1.441,-0.955 1.441,-0.01 L 1.441,4.677 C 1.441,5.622 0.668,6.406 -0.278,6.406"
           id="path63"
           style="fill:#939598;fill-opacity:1;fill-rule:nonzero;stroke:none" />
      </g>
      <g
         transform="matrix(4.3445154,0,0,-4.3445154,73.26952,432.70264)"
         id="g65"
         style="fill:#000000;fill-opacity:1">
        <path
           d="M 0,0 L 1.283,0 L 7.378,-5.927 L 7.378,0 L 8.584,0 L 8.867,0 C 8.864,-0.088 8.864,-8.05 8.867,-8.14 L 7.688,-8.14 L 1.504,-2.111 L 1.504,-8.14 L 0,-8.14 C -0.003,-8.05 -0.003,-0.088 0,0"
           id="path67"
           style="fill:#000000;fill-opacity:1;fill-rule:nonzero;stroke:none" />
      </g>
      <path
         d="M 145.40412,441.87217 L 145.40412,468.0696 L 138.85259,468.0696 L 138.85259,432.7009 L 144.43964,432.7009 L 170.95422,458.45519 L 170.95422,432.7009 L 176.21977,432.7009 L 177.43623,432.7009 L 177.43623,468.0696 L 172.31405,468.0696 L 145.40412,441.87217 z"
         id="path71"
         style="fill:#000000;fill-opacity:1;fill-rule:nonzero;stroke:none" />
      <path
         d="M 281.46565,441.87217 L 281.46565,468.0696 L 274.92716,468.0696 L 274.92716,432.7009 L 280.50117,432.7009 L 307.02444,458.45519 L 307.02444,432.7009 L 312.26827,432.7009 L 313.50211,432.7009 L 313.50211,468.0696 L 308.37993,468.0696 L 281.46565,441.87217 z"
         id="path75"
         style="fill:#000000;fill-opacity:1;fill-rule:nonzero;stroke:none" />
      <path
         d="M 127.37873,432.70264 L 128.58216,432.70264 L 128.58216,468.06699 L 122.03063,468.06699 L 122.03063,432.70264 L 127.37873,432.70264 z"
         id="path79"
         style="fill:#000000;fill-opacity:1;fill-rule:nonzero;stroke:none" />
      <path
         d="M 222.02097,432.70264 L 223.23309,432.70264 L 223.23309,438.77193 L 207.43643,438.77193 L 207.43643,468.06699 L 200.64161,468.06699 L 200.64161,438.77193 L 184.86233,438.77193 L 184.86233,432.70264 L 222.02097,432.70264 z"
         id="path83"
         style="fill:#000000;fill-opacity:1;fill-rule:nonzero;stroke:none" />
      <path
         d="M 263.9664,432.70264 L 265.20458,432.70264 L 265.20458,438.77193 L 237.13033,438.77193 L 237.13467,446.72239 L 258.86159,446.72239 L 258.86159,452.80906 L 237.13467,452.80906 L 237.13033,461.97164 L 265.20458,461.97164 L 265.20458,468.06699 L 230.64831,468.06699 L 230.64831,432.70264 L 263.9664,432.70264 z"
         id="path87"
         style="fill:#000000;fill-opacity:1;fill-rule:nonzero;stroke:none" />
      <g
         transform="matrix(4.3445154,0,0,-4.3445154,349.90526,461.96945)"
         id="g97"
         style="fill:#000000;fill-opacity:1">
        <path
           d="M 0,0 L -4.631,0 L -4.631,5.34 L -4.588,5.34 L 0,5.34 C 1.446,5.34 1.962,3.895 1.962,2.666 C 1.962,1.439 1.446,0 0,0 M 2.471,5.547 C 1.883,6.321 1.011,6.737 -0.042,6.737 L -6.084,6.737 L -6.084,-1.404 L -0.042,-1.404 C 1.011,-1.404 1.883,-0.99 2.471,-0.216 C 3.027,0.509 3.317,1.504 3.317,2.666 C 3.317,3.829 3.027,4.827 2.471,5.547"
           id="path99"
           style="fill:#000000;fill-opacity:1;fill-rule:nonzero;stroke:none" />
      </g>
      <g
         transform="matrix(4.3445154,0,0,-4.3445154,408.31768,460.53055)"
         id="g101"
         style="fill:#000000;fill-opacity:1">
        <path
           d="M 0,0 C 0,-0.18 -0.154,-0.331 -0.337,-0.331 L -6.782,-0.331 C -6.971,-0.331 -7.123,-0.18 -7.123,0 L -7.123,4.67 C -7.123,4.851 -6.971,5.009 -6.782,5.009 L -0.337,5.009 C -0.154,5.009 0,4.851 0,4.669 L 0,0 z M -0.278,6.405 L -6.844,6.405 C -7.793,6.405 -8.567,5.628 -8.567,4.676 L -8.567,-0.01 C -8.567,-0.957 -7.793,-1.735 -6.844,-1.735 L -0.278,-1.735 C 0.668,-1.735 1.441,-0.957 1.441,-0.01 L 1.441,4.676 C 1.441,5.628 0.668,6.405 -0.278,6.405"
           id="path103"
           style="fill:#000000;fill-opacity:1;fill-rule:nonzero;stroke:none" />
      </g>
      <g
         transform="matrix(4.3445154,0,0,-4.3445154,526.08839,492.7599)"
         id="g105"
         style="fill:#000000;fill-opacity:1">
        <path
           d="M 0,0 C 1.562,-0.619 4.861,-1.115 7.438,-1.115 C 10.258,-1.115 11.424,-0.148 11.424,1.064 C 11.424,2.152 10.34,2.794 7.228,3.932 C 3.065,5.469 0.012,6.683 0.012,9.413 C 0.012,12.242 3.682,13.911 9.285,13.911 C 12.294,13.911 13.323,13.719 15.235,13.37 L 15.247,10.682 C 13.374,11.04 11.71,11.654 9.128,11.654 C 6.361,11.654 5.18,10.776 5.184,9.868 C 5.184,8.557 6.997,7.928 10.184,6.795 C 14.618,5.205 17.089,3.978 17.089,1.307 C 17.082,-1.447 13.997,-3.433 7.03,-3.433 C 4.168,-3.433 2.193,-3.242 0,-2.894 L 0,0 z"
           id="path107"
           style="fill:#000000;fill-opacity:1;fill-rule:nonzero;stroke:none" />
      </g>
      <g
         transform="matrix(4.3445154,0,0,-4.3445154,461.58273,442.63809)"
         id="g109"
         style="fill:#000000;fill-opacity:1">
        <path
           d="M 0,0 L -3.325,0 L -3.325,-12.553 L 0,-12.553 C 5.103,-12.553 8.316,-10.375 8.316,-6.302 C 8.316,-2.229 5.103,0 0,0 M 8.915,-13.724 C 7.272,-14.464 4.167,-14.935 1.449,-14.935 L -8.938,-14.935 L -8.938,2.337 L 1.449,2.337 C 4.166,2.337 7.272,1.857 8.915,1.118 C 12.91,-0.686 14.213,-3.568 14.213,-6.302 C 14.213,-9.036 12.922,-11.915 8.915,-13.724"
           id="path111"
           style="fill:#000000;fill-opacity:1;fill-rule:nonzero;stroke:none" />
      </g>
      <g
         transform="matrix(4.3445154,0,0,-4.3445154,643.19696,415.13689)"
         id="g113"
         style="fill:#000000;fill-opacity:1">
        <path
           d="M 0,0 C -3.308,0 -5.992,-2.682 -5.992,-5.99 C -5.992,-9.302 -3.308,-11.983 0,-11.983 C 3.308,-11.983 5.999,-9.302 5.999,-5.99 C 5.999,-2.682 3.308,0 0,0 M 0.899,-10.285 L -0.894,-10.285 L -0.894,-4.816 L 0.899,-4.816 L 0.899,-10.285 z M -0.008,-3.791 C -0.589,-3.791 -1.06,-3.338 -1.06,-2.778 C -1.06,-2.214 -0.589,-1.762 -0.008,-1.762 C 0.592,-1.762 1.068,-2.207 1.068,-2.778 C 1.068,-3.345 0.592,-3.791 -0.008,-3.791"
           id="path115"
           style="fill:#000000;fill-opacity:1;fill-rule:nonzero;stroke:none" />
      </g>
    </g>
  </g>
</svg>
