<?xml version="1.0" encoding="UTF-8" standalone="no"?>
<!-- Created with Inkscape (http://www.inkscape.org/) -->

<svg
   xmlns:dc="http://purl.org/dc/elements/1.1/"
   xmlns:cc="http://creativecommons.org/ns#"
   xmlns:rdf="http://www.w3.org/1999/02/22-rdf-syntax-ns#"
   xmlns:svg="http://www.w3.org/2000/svg"
   xmlns="http://www.w3.org/2000/svg"
   xmlns:sodipodi="http://sodipodi.sourceforge.net/DTD/sodipodi-0.dtd"
   xmlns:inkscape="http://www.inkscape.org/namespaces/inkscape"
   width="1000"
   height="246.355"
   viewBox="0 0 1000 246.355"
   id="svg4740"
   version="1.1"
   inkscape:version="0.91 r13725"
   sodipodi:docname="Nintendo Gray.svg">
  <defs
     id="defs4742" />
  <sodipodi:namedview
     id="base"
     pagecolor="#ffffff"
     bordercolor="#666666"
     borderopacity="1.0"
     inkscape:pageopacity="0.0"
     inkscape:pageshadow="2"
     inkscape:zoom="0.35355339"
     inkscape:cx="805.20034"
     inkscape:cy="428.99607"
     inkscape:document-units="px"
     inkscape:current-layer="layer1"
     showgrid="false"
     units="px"
     inkscape:window-width="1366"
     inkscape:window-height="705"
     inkscape:window-x="-8"
     inkscape:window-y="-8"
     inkscape:window-maximized="1" />
  <metadata
     id="metadata4745">
    <rdf:RDF>
      <cc:Work
         rdf:about="">
        <dc:format>image/svg+xml</dc:format>
        <dc:type
           rdf:resource="http://purl.org/dc/dcmitype/StillImage" />
        <dc:title></dc:title>
      </cc:Work>
    </rdf:RDF>
  </metadata>
  <g
     inkscape:label="Layer 1"
     inkscape:groupmode="layer"
     id="layer1"
     transform="translate(0,-806.00718)">
    <polygon
       id="polygon4152"
       points="746.9,1362.7 747,489.4 1019.1,489.4 1395.5,1098.4 1395.3,489.4 1665.3,489.4 1665.3,1362.7 1395.7,1362.7 1017.3,753.7 1017.3,1362.7 "
       class="logo"
       transform="matrix(0.1327986,0,0,0.1327986,0,806.00752)"
       style="fill:#939598;fill-opacity:1" />
    <polygon
       id="polygon4154"
       points="3133.1,1362.7 3133.2,783.1 2990.4,783.1 2990.4,696.9 3133.3,696.8 3133.1,579.2 3395.9,579.2 3395.9,696.7 3538.1,696.7 3538.1,783.1 3395.9,783.1 3396.1,1362.7 "
       class="logo"
       transform="matrix(0.1327986,0,0,0.1327986,0,806.00752)"
       style="fill:#939598;fill-opacity:1" />
    <polygon
       id="polygon4156"
       points="1815.6,1362.7 1815.6,781.9 2078.2,782 2078.2,1362.7 "
       class="logo"
       transform="matrix(0.1327986,0,0,0.1327986,0,806.00752)"
       style="fill:#939598;fill-opacity:1" />
    <polygon
       id="polygon4158"
       points="1815,667.7 1815,489.2 2078.2,489.2 2078.2,667.7 "
       class="logo"
       transform="matrix(0.1327986,0,0,0.1327986,0,806.00752)"
       style="fill:#939598;fill-opacity:1" />
    <path
       id="path4160"
       d="m 866.27181,947.79658 c 0,0 -0.0133,11.65972 -0.0133,16.33423 0,12.29715 -7.26408,17.37005 -14.24929,17.37005 -6.99848,0 -14.28913,-5.0729 -14.28913,-17.37005 0,-4.67451 0.0133,-16.62639 0.0133,-16.62639 0,0 0.0266,-11.4074 0.0266,-16.08191 0,-12.24403 7.30393,-17.27709 14.24929,-17.27709 6.95865,0 14.24929,5.03306 14.24929,17.27709 0,4.67451 -0.0133,13.3197 0.0266,16.41391 l -0.0133,-0.0398 0,0 z m -14.01025,-43.21266 c -28.1533,0 -50.9681,19.38859 -50.9681,43.30562 0,23.91703 22.82808,43.30562 50.9681,43.30562 28.1533,0 50.9681,-19.38859 50.9681,-43.30562 0,-23.91703 -22.8148,-43.30562 -50.9681,-43.30562 l 0,0 z"
       class="logo"
       inkscape:connector-curvature="0"
       style="fill:#939598;fill-opacity:1" />
    <path
       id="path4162"
       d="m 755.51778,870.99915 34.4214,0 0,115.97302 -34.47452,0 c 0,0 -0.0133,-3.74492 -0.0133,-4.46204 -13.34626,8.3796 -28.40562,8.36632 -40.13173,2.89501 -3.14733,-1.46078 -23.85063,-11.39412 -23.85063,-38.23271 0,-20.35803 19.20268,-42.58851 44.34145,-40.38406 8.27335,0.7304 14.15633,3.74492 19.73387,6.87897 -0.0266,-17.84813 -0.0266,-42.66819 -0.0266,-42.66819 l 0,0 z m 0.25232,77.02319 c 0,0 0,-9.66774 0,-13.7845 0,-11.92531 -8.23351,-14.9664 -13.6517,-14.9664 -5.55098,0 -13.67825,3.04109 -13.67825,14.9664 0,3.9574 0.0133,13.74466 0.0133,13.74466 0,0 -0.0133,9.61462 -0.0133,13.71809 0,11.91204 8.12727,15.0328 13.66497,15.0328 5.43147,0 13.67826,-3.12076 13.67826,-15.0328 0,-4.95338 -0.0133,-13.67825 -0.0133,-13.67825 l 0,0 z"
       class="logo"
       inkscape:connector-curvature="0"
       style="fill:#939598;fill-opacity:1" />
    <path
       id="path4164"
       d="m 357.62662,906.28374 c 13.04083,-0.37184 39.49431,8.16711 39.30839,38.69751 -0.0266,5.41818 -0.0133,41.96436 -0.0133,41.96436 l -34.64716,0 c 0,0 0,-45.8288 0,-50.64939 0,-6.71961 -6.42745,-14.19617 -15.93583,-14.19617 -9.4951,0 -16.55998,7.47656 -16.55998,14.19617 0,3.29341 0.0398,50.64939 0.0398,50.64939 l -34.6206,0 -0.0133,-77.11615 34.64716,-0.0266 c 0,0 -0.0398,6.2017 0,8.114 6.66649,-6.36106 16.26783,-11.30116 27.79474,-11.63316 l 0,0 z"
       class="logo"
       inkscape:connector-curvature="0"
       style="fill:#939598;fill-opacity:1" />
    <path
       id="path4166"
       d="m 641.04539,906.28374 c 13.04082,-0.37184 39.4943,8.16711 39.30839,38.69751 -0.0266,5.41818 -0.0133,41.96436 -0.0133,41.96436 l -34.64716,0 c 0,0 0,-45.8288 0,-50.64939 0,-6.71961 -6.42745,-14.19617 -15.93583,-14.19617 -9.4951,0 -16.55999,7.47656 -16.55999,14.19617 0,3.29341 0.0398,50.64939 0.0398,50.64939 l -34.62059,0 0.0266,-77.11615 34.60731,-0.0266 c 0,0 -0.0398,6.2017 0,8.114 6.66649,-6.36106 16.28111,-11.30116 27.79475,-11.63316 l 0,0 z"
       class="logo"
       inkscape:connector-curvature="0"
       style="fill:#939598;fill-opacity:1" />
    <path
       id="path4168"
       d="m 502.33726,936.73446 c -0.0531,-6.75945 0.0929,-11.2746 2.31069,-15.12576 2.72237,-4.75419 7.72888,-7.01177 12.27059,-7.03833 l -0.0133,0 c 4.54171,0.0266 9.54822,2.28414 12.27059,7.03833 2.21774,3.86444 2.3107,8.37959 2.25758,15.13904 l -29.09617,-0.0133 0,0 z m 28.97665,23.25303 c 0,0 0.0266,0.34528 0.0266,4.67451 0,14.10321 -9.28262,17.23726 -14.43521,17.23726 -5.15258,0 -14.59456,-3.13405 -14.59456,-17.23726 0,-4.22299 0.0266,-15.92255 0.0266,-15.92255 0,0 65.69546,0.0266 65.69546,-0.0133 0,-23.91703 -23.09367,-43.73058 -51.45946,-43.73058 -28.36578,0 -51.35321,19.3886 -51.35321,43.30562 0,23.91703 22.98743,43.29235 51.35321,43.29235 23.53192,0 43.41187,-13.42594 49.48076,-31.63263 l -34.74011,0.0266 0,0 z"
       class="logo"
       inkscape:connector-curvature="0"
       style="fill:#939598;fill-opacity:1" />
    <path
       id="path4170"
       d="m 908.66112,879.63106 c 5.64394,0 8.446,1.9123 8.446,5.69706 0,2.60285 -1.62015,4.56827 -4.31596,5.24554 l 4.42219,8.83111 -5.35178,0 -3.78476,-8.10071 -2.35053,0 0,8.10071 -4.82059,0 0,-19.77371 7.75543,0 0,0 z m -0.43823,-7.72888 c -9.85366,0 -17.84813,7.99448 -17.84813,17.84813 0,9.85366 7.99447,17.84814 17.84813,17.84814 9.85366,0 17.84813,-7.99448 17.84813,-17.84814 0,-9.85365 -7.99447,-17.84813 -17.84813,-17.84813 l 0,0 z m 14.43521,17.86141 c 0,7.96792 -6.46729,14.43521 -14.43521,14.43521 -7.96792,0 -14.43521,-6.46729 -14.43521,-14.43521 0,-7.96791 6.46729,-14.4352 14.43521,-14.4352 7.96792,0 14.43521,6.45401 14.43521,14.4352 l 0,0 z m -16.93182,-1.35454 2.35053,0 c 2.74893,0 4.07692,-0.83663 4.07692,-2.80205 0,-2.05838 -1.42095,-2.94813 -4.31596,-2.94813 l -2.11149,0 0,5.75018 0,0 0,0 z"
       class="logo"
       inkscape:connector-curvature="0"
       style="fill:#939598;fill-opacity:1" />
    <path
       id="path4172"
       d="M 130.79334,1052.3622 C 52.389047,1052.3356 0,996.7727 0,929.40397 l 0,0 C 0,862.03525 52.508566,805.83488 130.67382,806.00752 l 738.65236,0 C 947.49143,805.83488 1000,862.03525 1000,929.40397 l 0,0 c 0,67.36873 -52.38905,122.93163 -130.79334,122.95823 l -738.41332,0 0,0 z m 0.23904,-216.05004 c -62.070068,0.11952 -100.169986,41.6058 -100.169986,92.93246 l 0,0 c 0,51.31337 37.86088,93.14498 100.169986,92.91918 l 737.93524,0 c 62.30911,0.2125 100.18327,-41.60581 100.18327,-92.91918 l 0,0 c 0,-51.31338 -38.09992,-92.79966 -100.16999,-92.91918 l -737.94852,-0.0133 0,0 z"
       class="logo"
       inkscape:connector-curvature="0"
       style="fill:#939598;fill-opacity:1" />
  </g>
</svg>
